<svg xmlns="http://www.w3.org/2000/svg" viewBox="0 0 41.07 35"><defs><style>.cls-1{fill:#dcc19d;}</style></defs><g id="Layer_2" data-name="Layer 2"><g id="Layer_1-2" data-name="Layer 1"><path class="cls-1" d="M23.25,34.22H.81A.81.81,0,0,1,0,33.41V.81A.81.81,0,0,1,.81,0H23.25a.81.81,0,0,1,.81.81v32.6A.81.81,0,0,1,23.25,34.22ZM1.63,32.6H22.44v-31H1.63Z"/><path class="cls-1" d="M37.22,28.86H29.81a.81.81,0,0,1-.81-.81V3.48A3.48,3.48,0,0,1,32.48,0h2.08A3.48,3.48,0,0,1,38,3.48V28.05A.81.81,0,0,1,37.22,28.86Zm-6.59-1.62h5.78V3.48a1.85,1.85,0,0,0-1.85-1.85H32.48a1.85,1.85,0,0,0-1.85,1.85Z"/><path class="cls-1" d="M33.52,35a.82.82,0,0,1-.7-.39l-3.7-6.14a.81.81,0,1,1,1.39-.84l3,5,3-5a.82.82,0,0,1,1.4.84l-3.71,6.14A.81.81,0,0,1,33.52,35Z"/><path class="cls-1" d="M40.25,12.94a.81.81,0,0,1-.81-.81V8.05H32.85A.82.82,0,0,1,32,7.23a.82.82,0,0,1,.82-.81h7.4a.82.82,0,0,1,.82.81v4.9A.82.82,0,0,1,40.25,12.94Z"/><path class="cls-1" d="M14.29,29.87H9.77A.82.82,0,0,1,9,29.05a.81.81,0,0,1,.81-.81h4.52a.81.81,0,0,1,.81.81A.82.82,0,0,1,14.29,29.87Z"/></g></g></svg>