<svg xmlns="http://www.w3.org/2000/svg" viewBox="0 0 46.62 48"><defs><style>.cls-1{fill:#dcc19d;}</style></defs><g id="Layer_2" data-name="Layer 2"><g id="Layer_1-2" data-name="Layer 1"><path class="cls-1" d="M38.06,48a1,1,0,0,1-.75-.35,1,1,0,0,1,.11-1.4l5.52-4.71H7.45a1,1,0,0,1-1-1L6.52,5,1.75,10.58a1,1,0,0,1-.76.35,1,1,0,0,1-.64-.24,1,1,0,0,1-.11-1.4L6.69,1.72a1,1,0,0,1,.76-.34,1,1,0,0,1,.76.34l6.46,7.57a1,1,0,0,1,.23.73,1,1,0,0,1-1,.91,1,1,0,0,1-.76-.35L8.44,5.06V39.49l.07.07H42.94l-5.52-4.71a1,1,0,0,1,.65-1.75.94.94,0,0,1,.64.24l7.56,6.45a1,1,0,0,1,0,1.52l-7.57,6.45A.93.93,0,0,1,38.06,48ZM45,31.13a1,1,0,0,1-1-1V2.05L44,2H15.86a1,1,0,0,1,0-2H45a1,1,0,0,1,1,1V30.14A1,1,0,0,1,45,31.13Zm-10.93-4-.35-.34-.09-6.36a3.06,3.06,0,0,0-3.15-3.25,3.11,3.11,0,0,0-3.19,3.31v6.29l-.35.35H25.76l-.35-.34-.08-6.29a3.18,3.18,0,1,0-6.35,0v6.29l-.34.35H17.45l-.35-.34L17,16l.35-.35h1.12l.34.35v.65a4.13,4.13,0,0,1,3.34-1.44,4.55,4.55,0,0,1,4.21,2.3,4.57,4.57,0,0,1,4.11-2.3,4.92,4.92,0,0,1,5.12,5.16v6.36l-.34.35ZM35,15l-.35-.34V14l.1-.25,3.09-3.05c.77-.76.82-1.1.82-1.46s0-.85-1.19-.85A1.92,1.92,0,0,0,35.87,9l-.15.18-.5,0-.75-.66,0-.48.16-.19a3.74,3.74,0,0,1,2.92-1.19c1.71,0,2.87,1,2.87,2.47a3.45,3.45,0,0,1-1.33,2.65l-1.59,1.57h2.93l.34.35v1l-.34.34Z"/></g></g></svg>