<svg xmlns="http://www.w3.org/2000/svg" viewBox="0 0 21.8 25.15"><defs><style>.cls-1,.cls-2{fill:#39434c;stroke:#39434c;stroke-miterlimit:10;}.cls-1{stroke-width:0.18px;}.cls-2{stroke-width:0.15px;}</style></defs><g id="Layer_2" data-name="Layer 2"><g id="Layer_1-2" data-name="Layer 1"><path class="cls-1" d="M17,23.57h-.93a1.4,1.4,0,0,1-1-.37,1.44,1.44,0,0,1-.36-1V17.59h-2a.6.6,0,0,1-.39-.12.5.5,0,0,1,0-.4c.07-.36.14-.72.22-1.08s.17-.81.25-1.22c.32-1.6.7-3.46,1.07-5.29a1.26,1.26,0,0,1,1.32-1h3.66a1.62,1.62,0,0,1,.3,0,1.26,1.26,0,0,1,.66.33,1.32,1.32,0,0,1,.36.65c.32,1.59.65,3.21,1,4.77.1.51.2,1,.31,1.51,0,.16.06.32.1.48.06.31.13.63.19.95a.42.42,0,0,1-.05.32.41.41,0,0,1-.31.11l-1.2,0h-.61a.18.18,0,0,0-.14.06l0,0-.06,0v4.44a1.26,1.26,0,0,1-1.38,1.38Zm-2.8-6.65h.6c.26,0,.4,0,.47.1s.1.21.1.46v4.67c0,.54.2.74.73.74h1.79c.57,0,.77-.19.77-.77V17.43a.58.58,0,0,1,.1-.41c.06-.07.19-.1.4-.1h1.8l0-.2a.28.28,0,0,1,0-.09l0-.16c-.18-.91-.37-1.81-.55-2.72-.28-1.36-.57-2.76-.85-4.14a.58.58,0,0,0-.61-.5H15.1a.59.59,0,0,0-.61.54c-.2,1-.42,2.11-.69,3.43-.17.83-.34,1.64-.52,2.5-.08.38-.15.75-.23,1.13l0,.21h1.17Z"/><path class="cls-1" d="M4.18,23.58H4.06a6.22,6.22,0,0,0-.64,0H2.33a1.43,1.43,0,0,1-1-.36,1.41,1.41,0,0,1-.37-1c0-1.41,0-2.85,0-4.28a.58.58,0,0,0-.3-.55,1.17,1.17,0,0,1-.57-1.05V9.76a1.35,1.35,0,0,1,.36-.94,1.24,1.24,0,0,1,.92-.37h3.8a1.24,1.24,0,0,1,.92.37,1.3,1.3,0,0,1,.35.94c0,.76,0,1.53,0,2.27v4.15a1.34,1.34,0,0,1-.64,1.26.58.58,0,0,0-.22.46c0,.32,0,.65,0,1,0,1,0,2.11,0,3.17a1.56,1.56,0,0,1-.38,1.14A1.39,1.39,0,0,1,4.18,23.58ZM3.26,9.11H1.54c-.58,0-.79.21-.79.79v6.33a.63.63,0,0,0,.44.67.78.78,0,0,1,.37.18.71.71,0,0,1,.06.39V22.1a.88.88,0,0,0,.16.62.84.84,0,0,0,.62.17H4.09a.82.82,0,0,0,.64-.17.86.86,0,0,0,.17-.64v-4.7c0-.3.11-.4.28-.45.49-.15.59-.28.59-.79V9.9c0-.6-.19-.79-.78-.79Z"/><path class="cls-2" d="M10.12,25.08a.31.31,0,0,1-.32-.28,1.85,1.85,0,0,1,0-.24V.61a1,1,0,0,1,0-.3.27.27,0,0,1,.29-.23h0a.29.29,0,0,1,.3.28,2.17,2.17,0,0,1,0,.26V24.51a2.17,2.17,0,0,1,0,.26.32.32,0,0,1-.3.31Z"/><path class="cls-1" d="M3.26,7.2A2.69,2.69,0,0,1,2.17,7a2.92,2.92,0,0,1-.9-.61,2.73,2.73,0,0,1-.6-.9A2.68,2.68,0,0,1,.45,4.39,2.73,2.73,0,0,1,.68,3.3a2.8,2.8,0,0,1,.6-.89,2.73,2.73,0,0,1,.9-.6,2.64,2.64,0,0,1,1.07-.23h0A2.83,2.83,0,0,1,6.07,4.39a2.72,2.72,0,0,1-.22,1.09,2.8,2.8,0,0,1-.6.89,2.76,2.76,0,0,1-.9.61,2.69,2.69,0,0,1-1.09.22Zm0-4.95A2.18,2.18,0,0,0,1.12,4.41,2.15,2.15,0,0,0,3.26,6.54h0a2.15,2.15,0,0,0,0-4.29Z"/><path class="cls-1" d="M17,7.2A2.78,2.78,0,0,1,15.88,7,2.83,2.83,0,0,1,15,6.36a2.8,2.8,0,0,1-.6-.89,2.9,2.9,0,0,1-.21-1.09,2.69,2.69,0,0,1,.23-1.08A2.81,2.81,0,0,1,15.9,1.81,2.91,2.91,0,0,1,17,1.58h0a2.7,2.7,0,0,1,1.09.23,2.8,2.8,0,0,1,.89.6,2.92,2.92,0,0,1,.61.9A2.87,2.87,0,0,1,19.8,4.4,2.81,2.81,0,0,1,17,7.2Zm0-4.95a2.17,2.17,0,0,0-2.13,2.13A2.14,2.14,0,0,0,17,6.54h0a2.15,2.15,0,0,0,0-4.29Z"/></g></g></svg>