<svg xmlns="http://www.w3.org/2000/svg" viewBox="0 0 48 48"><defs><style>.cls-1{fill:#dcc19d;}</style></defs><g id="Layer_2" data-name="Layer 2"><g id="Layer_1-2" data-name="Layer 1"><path class="cls-1" d="M48,47.25v-18a.76.76,0,0,0-.75-.75h-24a.76.76,0,0,0-.75.75v4.5a.76.76,0,0,0,.75.75H27v3H23.25a.76.76,0,0,0-.75.75v4.5a.76.76,0,0,0,.75.75H27v3.75a.76.76,0,0,0,.75.75h19.5A.76.76,0,0,0,48,47.25ZM28.5,43.5h8.25v3H28.5ZM42,39v3H33.75V39ZM28.5,37.5v-3h8.25v3ZM32.25,39v3H24V39Zm0-6H24V30h8.25ZM42,33H33.75V30H42Zm4.5,0h-3V30h3Zm0,4.5H38.25v-3H46.5Zm0,4.5h-3V39h3Zm0,4.5H38.25v-3H46.5Z"/><path class="cls-1" d="M0,9.37v6.75a.75.75,0,0,0,.75.75h4.5A.75.75,0,0,0,6,16.12V15H7.87V30H6.75a.76.76,0,0,0-.75.75V43.5H4.12a.76.76,0,0,0-.75.75v3a.76.76,0,0,0,.75.75h13.5a.75.75,0,0,0,.75-.75v-3a.75.75,0,0,0-.75-.75H15.75V30.75A.76.76,0,0,0,15,30H13.87V15H38.62v3H36.37a.76.76,0,0,0-.75.75V21h-.75a.76.76,0,0,0-.75.75V25.5a.76.76,0,0,0,.75.75h9a.75.75,0,0,0,.75-.75V21.75a.75.75,0,0,0-.75-.75h-.75V18.75a.75.75,0,0,0-.75-.75H40.12V15h5.63a.76.76,0,0,0,.75-.75V8.63a.74.74,0,0,0-.62-.74L13.63,2.26a.69.69,0,0,0-.32,0l-.18,0V1.5a.75.75,0,0,0-1.5,0v.75h-1.5V.75a.75.75,0,0,0-1.5,0v1.5A.75.75,0,0,0,7.88,3v7.5H6V9.37a.76.76,0,0,0-.75-.75H.75A.76.76,0,0,0,0,9.37ZM11.25,12v1.5H9V12Zm1.12-1.5h-3V3.75h3Zm0,19.5h-3V15h3ZM42.75,12H45v1.5H42.75ZM39,13.5V12h2.25v1.5ZM41.62,21h-1.5V19.5h1.5Zm-5.25,1.5h6.75v2.25h-7.5V22.5Zm2.25-3V21h-1.5V19.5Zm-24.75-9V3.83L45,9.26V10.5ZM35.25,12H37.5v1.5H35.25ZM31.5,12h2.25v1.5H31.5Zm-3.75,0H30v1.5H27.75ZM24,12h2.25v1.5H24Zm-3.75,0H22.5v1.5H20.25ZM16.5,12h2.25v1.5H16.5Zm-3.75,1.5V12H15v1.5Zm1.5,21L7.5,38.76v-2l6.75-4.3Zm0,3.75L7.5,42.51v-2l6.75-4.3Zm0,5.29H8.74L14.25,40ZM16.87,45v1.5h-12V45ZM13,31.5,7.5,35V31.5ZM6,12H7.5v1.5H6ZM1.5,10.12h3v5.25h-3Z"/></g></g></svg>