<svg xmlns="http://www.w3.org/2000/svg" viewBox="0 0 35.1 35"><defs><style>.cls-1{fill:#dcc19d;}</style></defs><g id="Layer_2" data-name="Layer 2"><g id="Layer_1-2" data-name="Layer 1"><path class="cls-1" d="M28,35H4.51A4.52,4.52,0,0,1,0,30.49V7A4.52,4.52,0,0,1,4.51,2.52h9.2a1,1,0,1,1,0,1.95H4.51A2.56,2.56,0,0,0,2,7V30.49A2.55,2.55,0,0,0,4.51,33H28a2.55,2.55,0,0,0,2.55-2.55V21.75a1,1,0,1,1,1.95,0v8.74A4.51,4.51,0,0,1,28,35Z"/><path class="cls-1" d="M18.94,27.46a1,1,0,0,1-.7-.28L7.92,16.85a1,1,0,0,1,0-1.38L23.1.29A.94.94,0,0,1,23.79,0H34.12a1,1,0,0,1,1,1V11.3a1,1,0,0,1-.29.7L19.63,27.18A1,1,0,0,1,18.94,27.46Zm-9-11.3,9,8.94,14.2-14.2V2H24.2Z"/><path class="cls-1" d="M26.2,10.4a2.53,2.53,0,1,1,2.53-2.52A2.52,2.52,0,0,1,26.2,10.4Zm0-3.1a.58.58,0,1,0,.57.58A.58.58,0,0,0,26.2,7.3Z"/></g></g></svg>