<svg xmlns="http://www.w3.org/2000/svg" viewBox="0 0 38.08 35"><defs><style>.cls-1{fill:#dcc19d;}</style></defs><g id="Layer_2" data-name="Layer 2"><g id="Layer_1-2" data-name="Layer 1"><path class="cls-1" d="M31.56,35H6a.86.86,0,0,1-.86-.86V17.54H.86A.85.85,0,0,1,.07,17a.86.86,0,0,1,.18-.94l4.51-4.51V4.11a.87.87,0,0,1,.86-.86h5a.86.86,0,0,1,.86.86V6.55L19.27.19a.88.88,0,0,1,1.13,0L37.8,16a.86.86,0,0,1-.58,1.5h-4.8v16.6A.86.86,0,0,1,31.56,35ZM6.81,33.28H30.7V16.68a.86.86,0,0,1,.86-.86H35L19.79,2,11.16,9a.84.84,0,0,1-.91.11.85.85,0,0,1-.49-.77V5H6.48v7a.86.86,0,0,1-.25.61L2.94,15.82H6a.86.86,0,0,1,.86.86Z"/></g></g></svg>