<svg xmlns="http://www.w3.org/2000/svg" viewBox="0 0 52.22 48"><defs><style>.cls-1{fill:#dcc19d;}</style></defs><g id="Layer_2" data-name="Layer 2"><g id="Layer_1-2" data-name="Layer 1"><path class="cls-1" d="M51.83,22,28,.31a1.17,1.17,0,0,0-1.53,0L15.74,9V5.64a1.18,1.18,0,0,0-1.18-1.18H7.7A1.18,1.18,0,0,0,6.52,5.64V15.85L.35,22a1.19,1.19,0,0,0,.83,2H7V46.82A1.18,1.18,0,0,0,8.16,48H43.27a1.18,1.18,0,0,0,1.18-1.18V24.05H51A1.18,1.18,0,0,0,51.83,22Zm-8.56-.31a1.18,1.18,0,0,0-1.17,1.18V45.64H9.34V22.87a1.18,1.18,0,0,0-1.18-1.18H4l4.51-4.51a1.15,1.15,0,0,0,.35-.84V6.82h4.5v4.64a1.19,1.19,0,0,0,.68,1.06,1.15,1.15,0,0,0,1.24-.15L27.14,2.74,48,21.69Z"/></g></g></svg>