<svg xmlns="http://www.w3.org/2000/svg" viewBox="0 0 20.23 25"><defs><style>.cls-1{fill:#dcc19d;}</style></defs><g id="Layer_2" data-name="Layer 2"><g id="Layer_1-2" data-name="Layer 1"><path class="cls-1" d="M15.59,25H4.64a2.12,2.12,0,0,1-2.09-1.93L1.16,6.41a.59.59,0,1,1,1.18-.1L3.73,23a.92.92,0,0,0,.91.84h11A.92.92,0,0,0,16.5,23L17.89,6.31a.6.6,0,0,1,.64-.55.61.61,0,0,1,.55.65L17.69,23.07A2.12,2.12,0,0,1,15.59,25Z"/><path class="cls-1" d="M18.91,6.87H1.33A1.33,1.33,0,0,1,0,5.54V4.29A1.32,1.32,0,0,1,1.33,3H18.91a1.32,1.32,0,0,1,1.32,1.32V5.54A1.33,1.33,0,0,1,18.91,6.87ZM1.33,4.16a.13.13,0,0,0-.14.13V5.54a.14.14,0,0,0,.14.14H18.91A.13.13,0,0,0,19,5.54V4.29a.13.13,0,0,0-.13-.13Z"/><path class="cls-1" d="M6.8,4H6.73a.6.6,0,0,1-.52-.66A3.8,3.8,0,0,1,10,0h.25A3.81,3.81,0,0,1,14,3.38a.6.6,0,0,1-1.19.14,2.62,2.62,0,0,0-2.6-2.33H10a2.62,2.62,0,0,0-2.6,2.33A.59.59,0,0,1,6.8,4Z"/><path class="cls-1" d="M5.92,21a.6.6,0,0,1-.6-.54L4.44,9.78a.59.59,0,1,1,1.18-.1l.89,10.63A.6.6,0,0,1,6,21Z"/><path class="cls-1" d="M14.32,21h-.05a.59.59,0,0,1-.54-.64l.88-10.63a.6.6,0,1,1,1.19.1l-.89,10.63A.58.58,0,0,1,14.32,21Z"/><path class="cls-1" d="M10.12,22a.59.59,0,0,1-.6-.59V8.66a.6.6,0,0,1,.6-.6.59.59,0,0,1,.59.6V21.43A.58.58,0,0,1,10.12,22Z"/></g></g></svg>