<svg xmlns="http://www.w3.org/2000/svg" viewBox="0 0 44.82 48"><defs><style>.cls-1{fill:#dcc19d;}</style></defs><g id="Layer_2" data-name="Layer 2"><g id="Layer_1-2" data-name="Layer 1"><path class="cls-1" d="M6,17.47H25.09a1,1,0,0,0,0-2.06H6a1,1,0,1,0,0,2.06Z"/><path class="cls-1" d="M6,22.26H20.6a1,1,0,1,0,0-2.05H6a1,1,0,1,0,0,2.05Z"/><path class="cls-1" d="M6,27.05H16A1,1,0,1,0,16,25H6a1,1,0,1,0,0,2.05Z"/><path class="cls-1" d="M44.27,8.65a4.08,4.08,0,0,0-2.49-1.92L31.25,3.87A4.12,4.12,0,0,0,27.15,0H10.45l-.09,0h0l-.07,0h0l-.08,0h0l-.08.05h0L10,.22l0,0L9.93.3.3,9.93.24,10l0,0,0,.06v0l-.05.08h0l0,.08v0a.64.64,0,0,1,0,.07v0s0,.06,0,.09H0a.28.28,0,0,0,0,.09v.1H0V38.5a4.11,4.11,0,0,0,4.11,4.11h7.17l19.35,5.25a4.45,4.45,0,0,0,1.08.14,4.11,4.11,0,0,0,4-3l9-33.2A4.05,4.05,0,0,0,44.27,8.65ZM9.63,3.51V7.57A2.07,2.07,0,0,1,7.57,9.63H3.51Zm-7.58,35V11.68H7.57a4.11,4.11,0,0,0,4.11-4.11V2.05H27.15A2.06,2.06,0,0,1,29.2,4.11V38.5a2.06,2.06,0,0,1-1.44,2,2.11,2.11,0,0,1-.61.1h-23A2.07,2.07,0,0,1,2.05,38.5ZM42.69,11.23l-9,33.2a2.06,2.06,0,0,1-2.52,1.44l-12-3.26h8a4.11,4.11,0,0,0,4.1-4.11V6l10,2.7h0a2.05,2.05,0,0,1,1.44,2.52Z"/><path class="cls-1" d="M12.11,30.82a1,1,0,0,0-1-1H6a1,1,0,1,0,0,2.06h5.14A1,1,0,0,0,12.11,30.82Z"/></g></g></svg>