<svg xmlns="http://www.w3.org/2000/svg" viewBox="0 0 24.42 25.14"><defs><style>.cls-1,.cls-2{fill:#39434c;}.cls-1{stroke:#39434c;stroke-miterlimit:10;stroke-width:0.14px;}</style></defs><g id="Layer_2" data-name="Layer 2"><g id="Layer_1-2" data-name="Layer 1"><path class="cls-1" d="M23.55,16.26a.48.48,0,0,1-.48-.48V1H8.32a.48.48,0,1,1,0-.95H23.55a.47.47,0,0,1,.33.14A.48.48,0,0,1,24,.55V15.78A.48.48,0,0,1,23.55,16.26Z"/><path class="cls-1" d="M19.92,25.07a.48.48,0,0,1-.31-.84l3-2.54H3.92a.48.48,0,0,1-.48-.47V2.56l-2.53,3a.46.46,0,0,1-.36.17.43.43,0,0,1-.31-.12.48.48,0,0,1-.06-.67L3.56,1A.46.46,0,0,1,3.92.79.47.47,0,0,1,4.28,1l3.38,4a.49.49,0,0,1,.11.35.47.47,0,0,1-.16.32.48.48,0,0,1-.68,0l-2.53-3V20.74H22.58l-3-2.53a.49.49,0,0,1-.06-.68.53.53,0,0,1,.37-.17.52.52,0,0,1,.31.12l3.95,3.37a.5.5,0,0,1,.17.37.46.46,0,0,1-.17.36L20.23,25A.49.49,0,0,1,19.92,25.07Z"/><path class="cls-2" d="M18.67,11v4h-.91V11c0-1.4-.68-2.17-2-2.17a2.21,2.21,0,0,0-2.3,2.46V15H12.6V11c0-1.4-.68-2.17-1.95-2.17a2.22,2.22,0,0,0-2.31,2.46V15h-.9V8h.88V9.13A2.87,2.87,0,0,1,10.75,8,2.5,2.5,0,0,1,13.2,9.42,3,3,0,0,1,15.88,8,2.65,2.65,0,0,1,18.67,11Z"/><path class="cls-2" d="M18.31,7.71V7.33l1.62-1.6c.4-.41.48-.63.48-.89,0-.54-.5-.63-.81-.63a1.21,1.21,0,0,0-1,.39l-.08.1-.39-.35.08-.09a1.76,1.76,0,0,1,1.38-.56c.81,0,1.33.44,1.33,1.11a1.66,1.66,0,0,1-.64,1.25L19.16,7.2h2v.51Z"/></g></g></svg>