<svg xmlns="http://www.w3.org/2000/svg" viewBox="0 0 35.48 35"><defs><style>.cls-1{fill:#dcc19d;}</style></defs><g id="Layer_2" data-name="Layer 2"><g id="Layer_1-2" data-name="Layer 1"><path class="cls-1" d="M34.53,35a.94.94,0,0,1-.94-.94v-4.2a3,3,0,0,0-3-3H4.9a3,3,0,0,0-3,3v4.2a.95.95,0,0,1-1.89,0v-4.2A4.91,4.91,0,0,1,4.9,25H30.58a4.91,4.91,0,0,1,4.9,4.9v4.2A1,1,0,0,1,34.53,35Z"/><path class="cls-1" d="M10.41,35a1,1,0,0,1-.95-.94v-3a.95.95,0,0,1,1.89,0v3A.94.94,0,0,1,10.41,35Z"/><path class="cls-1" d="M25.27,35a.94.94,0,0,1-.94-.94v-3a.94.94,0,1,1,1.88,0v3A.94.94,0,0,1,25.27,35Z"/><path class="cls-1" d="M17.74,22.47c-5.59,0-10.14-5-10.14-11.24S12.15,0,17.74,0,27.87,5,27.87,11.23,23.33,22.47,17.74,22.47Zm0-20.8c-4.55,0-8.25,4.29-8.25,9.56s3.7,9.57,8.25,9.57S26,16.51,26,11.23,22.29,1.67,17.74,1.67Z"/></g></g></svg>