<svg xmlns="http://www.w3.org/2000/svg" viewBox="0 0 126.48 90"><defs><style>.cls-1{fill:#fff;}.cls-2{fill:#e7caa5;}.cls-3{fill:#dcc19d;}</style></defs><g id="Layer_2" data-name="Layer 2"><g id="Layer_1-2" data-name="Layer 1"><path class="cls-1" d="M2.37,88.89l.12.38h0l.12-.38,1.83-4.68H5L2.74,89.85H2.27L0,84.21H.54Z"/><path class="cls-1" d="M14.25,89.85h-.5V84.21h.5Z"/><path class="cls-1" d="M27.61,84.6H25.52v5.25H25V84.6H22.93v-.39h4.68Z"/><path class="cls-2" d="M62.87,87.19H59.94v2.33h3.35v.4H59.44V84.28h3.83v.39H59.94v2.12h2.93Z"/><path class="cls-2" d="M75.55,88.53a.92.92,0,0,0-.37-.75,3.52,3.52,0,0,0-1.29-.51,4.39,4.39,0,0,1-1.52-.61,1.18,1.18,0,0,1-.51-1,1.25,1.25,0,0,1,.57-1.06,2.53,2.53,0,0,1,1.48-.4,2.31,2.31,0,0,1,1.52.48A1.46,1.46,0,0,1,76,85.86v0h-.46a1.16,1.16,0,0,0-.44-.93,1.71,1.71,0,0,0-1.17-.37,1.89,1.89,0,0,0-1.14.3.91.91,0,0,0-.41.76.85.85,0,0,0,.38.71,3.78,3.78,0,0,0,1.31.5,3.77,3.77,0,0,1,1.49.63,1.25,1.25,0,0,1,.51,1,1.21,1.21,0,0,1-.59,1.07,2.64,2.64,0,0,1-1.52.4,3,3,0,0,1-1.59-.42,1.35,1.35,0,0,1-.66-1.24v0h.46a1.07,1.07,0,0,0,.53,1,2.42,2.42,0,0,0,1.25.31,2.07,2.07,0,0,0,1.17-.29A.87.87,0,0,0,75.55,88.53Z"/><path class="cls-2" d="M89,84.67H86.9v5.25h-.5V84.67H84.31v-.39H89Z"/><path class="cls-2" d="M113.94,84.67h-2.09v5.25h-.51V84.67h-2.09v-.39h4.69Z"/><path class="cls-2" d="M126.06,87.19h-2.93v2.33h3.35v.4h-3.85V84.28h3.83v.39h-3.33v2.12h2.93Z"/><path class="cls-1" d="M38,85.16l-.12-.38h0l-.12.38-1.82,4.69h-.55l2.27-5.64h.48l2.26,5.64h-.54Z"/><path class="cls-2" d="M99.36,85.23l-.12-.37h0l-.13.37-1.82,4.69h-.55L99,84.28h.48l2.26,5.64h-.54Z"/><path class="cls-1" d="M57.24,24.3a28,28,0,0,0-4.14,2.06l-.24.15-1.24-3-.26-.64-.12-.31L51,21.88l-3-7.47c-.1-.22-.21-.42-.31-.61-1.9-3.4-4.37-2.67-10.06-2.85v-.24l9.75-.06,6.73,0,5.76,0h.61v.25l-.7,0c-3.14.15-4.36.64-4.79,1.93a2.43,2.43,0,0,0-.12.79,1.09,1.09,0,0,0,0,.18,7.11,7.11,0,0,0,.51,2.18l.24.63,1.87,4.61.37.91.7,1.73L58,24C57.74,24.1,57.49,24.19,57.24,24.3Z"/><path class="cls-1" d="M74,33.36l-.46.88c-2.33,4.5-4.71,9.11-6.55,12.65l-2.8,5.43-.48.92-3.64-9-.26-.64-.23-.55-.47-1.17-.32-.79L58.35,40,57.91,39l-3.54-8.58a29.85,29.85,0,0,1,2.54-2.2c.45-.34.88-.63,1.26-.88h0l.68-.41L59,26.8a4.42,4.42,0,0,1,.6-.3l0,.06,3.19,7.87.18.44.14.36,0,.1.16.39.08.21.07.18,0,.09.36.9.16.38.24.61,2.84,7,.48-.91L73,34.07l.46-.87.23,0,.18.06Z"/><path class="cls-1" d="M93.8,10.48v.25A13.79,13.79,0,0,0,87,12.45a10.22,10.22,0,0,0-1.57,1.18,12.25,12.25,0,0,0-1.14,1.14,20.86,20.86,0,0,0-2.11,2.89c-.07.11-.27.47-.57,1-1.14,2.15-3.79,7.23-6.71,12.85h-.06c-.13,0-.26-.06-.39-.09l-.13,0,2.4-4.52s1.06-2.23,2-4.31c.72-1.54,1.38-3,1.52-3.41a19.1,19.1,0,0,0,.88-3.07,5,5,0,0,0,.07-.82,5.83,5.83,0,0,0-.21-1.66c-.61-2.08-2.45-2.69-4.76-2.85l-.46,0-.49,0h-.8v-.25Z"/><path class="cls-3" d="M41.06,22.25C36.25,20.71,32.34,16.18,32.7,11c.58-6.16,5.39-8.66,9.53-9.78A23.6,23.6,0,0,1,51.45.93,13.59,13.59,0,0,1,59,4.33c.39.35.82.83,1,1a.72.72,0,0,1,.23.39c.07.51-.54.64-.85.36A12.61,12.61,0,0,0,55.57,3a14.58,14.58,0,0,0-3.94-1.28,24.77,24.77,0,0,0-4.58-.31c-5.66,0-12.2,2.43-13.35,8.85-.67,4,1.16,7.11,4.38,9.46A19.34,19.34,0,0,0,50.39,22.6l.39.94A25,25,0,0,1,41.06,22.25Z"/><path class="cls-3" d="M77.25,35.33A11,11,0,0,0,76.84,34a5.84,5.84,0,0,0-.31-.61,2.7,2.7,0,0,0-.29-.4,3.18,3.18,0,0,0-.41-.41l-.15-.11h0a2.39,2.39,0,0,0-.48-.28l-.1,0a2.67,2.67,0,0,0-.36-.14l-.19-.05-.39-.09-.69-.09a8.08,8.08,0,0,0-2.46.19,21.21,21.21,0,0,0-6.76,2.71l-.4.25h0l.16.39.15.38,0,.09.31.76c2.59-2.31,6-4.3,8.85-3.87l.33,0,.38.09.2.06a2,2,0,0,1,.31.12l0,0a2.8,2.8,0,0,1,.49.3l.22.19h0a2.37,2.37,0,0,1,.39.47,2.69,2.69,0,0,1,.24.48,5.2,5.2,0,0,1,.21.55l.06.16a6.81,6.81,0,0,1,.29,1.9,16.41,16.41,0,0,1-.25,3.51,24.87,24.87,0,0,1-1.34,4.64c-.14.36-.3.73-.47,1.11a23.39,23.39,0,0,1-3.82,6.2l-.16.18-.34.39,0-.09a6.77,6.77,0,0,0-.3-.77L69.73,52a17.16,17.16,0,0,0-1.2-2l-.07-.09c-.09-.12-.18-.22-.26-.31a1.55,1.55,0,0,0-.19-.14h0a.51.51,0,0,0-.27,0h-.1a.51.51,0,0,0-.32.65.92.92,0,0,0,0,.09,8.48,8.48,0,0,0,.63,1l0,0A7,7,0,0,1,69,53c.1.32.2.63.28.93v0l-.56.54a23.45,23.45,0,0,1-3.26,2.63c-.27.18-.53.35-.8.51a21.81,21.81,0,0,1-10.6,3.14c-.33,0-.65,0-1,0,0-.18.05-.36.08-.55a33.61,33.61,0,0,1,1.7-6.49,58,58,0,0,1,2.51-6.45C58,46,58.55,44.9,59.05,44l-.27-.67-1-2.43,0-.06a34.93,34.93,0,0,0-6.52,19.23c0,.15,0,.3,0,.46a10.6,10.6,0,0,1-1.93-.62,8.8,8.8,0,0,1-1.47-.81l-.37-.28c-3.39-2.75-3.77-6.5-3.3-10.1a24.83,24.83,0,0,1,1-4.44,30.18,30.18,0,0,1,3.56-7.82,32.63,32.63,0,0,1,2.11-3.31A25.68,25.68,0,0,1,52.55,31l0,0c.26-.28.54-.59.85-.9l.1-.09,0,0,.5-.51.65-.61c.41-.37.76-.65,1-.85l.22-.17c.33-.26.62-.46.83-.61s.74-.52,1.31-.86l.49-.27.12-.07.6-.3.5-.23L60,25.4a18.3,18.3,0,0,1,4.3-1.18l.32,0h.06l.43.33.22.17a12.43,12.43,0,0,0,1.67,1l.26.13.23.11.16.07.18.08.39.14.33.1.44.12a5.26,5.26,0,0,0,1.68.1,3.26,3.26,0,0,0,.55-.08,1.74,1.74,0,0,0,1-.64,1.6,1.6,0,0,0-.82-1.93h0a3.45,3.45,0,0,0-.41-.24,4.8,4.8,0,0,0-1.17-.41h0l-.42-.08-.18,0-.46-.05a7.26,7.26,0,0,0-.85,0c-.86,0-1.6,0-2.34.08l-.5,0-.36-.44-.14-.17a7.26,7.26,0,0,1-1.42-2.81l.38-.22.35-.2A31.35,31.35,0,0,0,67,17.15l1-.83s0,0,0,0c.23-.18.43-.36.62-.52h0a30.3,30.3,0,0,0,2.56-2.6c.34-.36.64-.69.91-1,0,0,0,0,0,0,.36-.41.68-.8,1-1.18h0a19.62,19.62,0,0,0,2-3.28,16,16,0,0,0,1.35-3.42A4.51,4.51,0,0,0,76.31,1l0-.06A2.46,2.46,0,0,0,75.88.5a1.76,1.76,0,0,0-.33-.24,1.35,1.35,0,0,0-.32-.15c-1.16-.38-3.31.31-4.17.68L70.53,1,70,1.29a18.87,18.87,0,0,0-5.38,4,19.56,19.56,0,0,0-2.26,3,13.52,13.52,0,0,0-2,5.39l0,.28a10.9,10.9,0,0,0,.75,5.57c0,.06.05.12.08.19L60.8,20c-.32.15-.64.28-1,.41l-1.17.43-.44.14,0,.09.32.78.62-.24c.63-.25,1.25-.53,1.87-.81l.16-.08.37-.17c.1.18.21.36.32.54l.1.15A11.62,11.62,0,0,0,63.49,23l.28.28c-.27,0-.54.08-.83.14a25.67,25.67,0,0,0-3.34.87l-.78.27-.62.24-.14.05a28.45,28.45,0,0,0-4.13,2.07c-.24.14-.48.3-.72.45l-.57.38-.12.08a24.23,24.23,0,0,0-4.05,3.5h0l-.34.38c-4.9,5.56-7,12.28-6.36,18.32a12.83,12.83,0,0,0,4.71,9.25,10.88,10.88,0,0,0,2.25,1.34l0,0a13.17,13.17,0,0,0,1.63.57c.27.08.55.14.82.2a1.93,1.93,0,0,0,0,.24c0,.27,0,.54,0,.81a23,23,0,0,0,.35,3.25,14,14,0,0,0,.9,3.37,8.86,8.86,0,0,0,1.67,2.72,11.57,11.57,0,0,0,.85.82,5.67,5.67,0,0,0,1.55.92l0,0a7.1,7.1,0,0,0,2.57.45,8.17,8.17,0,0,0,2.38-.36A9.25,9.25,0,0,0,63.31,73a10.11,10.11,0,0,0,2.44-1.67,8.26,8.26,0,0,0,.78-.81h0a.08.08,0,0,0,0,0c.34-.41.63-.82,1-1.31a15.73,15.73,0,0,0,1.57-2.7l0-.06c.1-.21.19-.44.28-.67a16.09,16.09,0,0,0,.63-2,20,20,0,0,0,.59-8.35c-.06-.41-.12-.83-.21-1.25l.34-.38.1-.11c0-.07.11-.13.16-.19a18.61,18.61,0,0,0,1.53-2,27.26,27.26,0,0,0,4-7.78,21.16,21.16,0,0,0,.88-4.5h0c0-.11,0-.21,0-.29A10.16,10.16,0,0,0,77.25,35.33ZM66,24l.79,0,.51,0a7.51,7.51,0,0,1,.94,0l.47,0,.19,0,.32,0,.11,0a5.6,5.6,0,0,1,1,.3l.12.05a1.42,1.42,0,0,1,.53.31h0l.07.08a.77.77,0,0,1,.2.36.29.29,0,0,1,0,.13c-.09.25-.62.33-.75.3a7.13,7.13,0,0,1-1.77-.25l-.4-.12-.19-.06L67.74,25h0A7.72,7.72,0,0,1,66,24ZM63,18.77a7,7,0,0,1-.07-.94c0-.18,0-.37,0-.56,0-3.91,2-8.39,4.18-11.53A16,16,0,0,1,68.46,4V4a12.93,12.93,0,0,1,1.41-1.28,12.54,12.54,0,0,1,2.37-1.36l.06,0a4.65,4.65,0,0,1,1-.31,4.1,4.1,0,0,1,1.24-.1,1.26,1.26,0,0,1,.36.1l.13.07a.89.89,0,0,1,.26.28,2.08,2.08,0,0,1,.29.87,2.25,2.25,0,0,1,0,.44,5.16,5.16,0,0,1-.39,2,23.82,23.82,0,0,1-2.84,5.56,22.75,22.75,0,0,1-1.69,2.19h0a26.07,26.07,0,0,1-3.31,3.16,23.93,23.93,0,0,1-3.61,2.75c-.28.18-.55.34-.83.5A.28.28,0,0,1,63,18.77ZM69.19,62.9a17.08,17.08,0,0,1-.79,2.64,13.52,13.52,0,0,1-.72,1.53c-.2.37-.45.79-.74,1.24a16.52,16.52,0,0,1-1.19,1.6h0a9.51,9.51,0,0,1-3.36,2.57,4.53,4.53,0,0,1-.49.2,7,7,0,0,1-4.8,0,5.53,5.53,0,0,1-1.35-.76l-.19-.15a6.4,6.4,0,0,1-1.66-2.5A15.41,15.41,0,0,1,53,61.67l.31,0a20.78,20.78,0,0,0,4.17-.28A26.57,26.57,0,0,0,65,58.55a20.9,20.9,0,0,0,3.4-2.46l.51-.45.62-.59v0c.09.38.15.74.2,1.09A16.64,16.64,0,0,1,69.19,62.9Z"/></g></g></svg>