<svg xmlns="http://www.w3.org/2000/svg" viewBox="0 0 29.23 48"><defs><style>.cls-1{fill:#dcc19d;}</style></defs><g id="Layer_2" data-name="Layer 2"><g id="Layer_1-2" data-name="Layer 1"><path class="cls-1" d="M1,48a1,1,0,0,1-.74-.32A1,1,0,0,1,0,47V1A1,1,0,0,1,.32.27,1,1,0,0,1,1,0H28.22a1,1,0,0,1,.72.3,1,1,0,0,1,.29.71V47a1,1,0,0,1-.3.71,1,1,0,0,1-.73.3Zm26.25-2L27.19,2,2,2V46ZM22.52,28.39a1.21,1.21,0,0,1-.51-.14.93.93,0,0,1-.48-.78V20.29a1,1,0,0,1,.32-.73,1,1,0,0,1,.67-.28,1.08,1.08,0,0,1,.57.15l.07.05a1.09,1.09,0,0,1,.41.81v7.18a.87.87,0,0,1-.33.67,1.33,1.33,0,0,1-.62.25h-.1Z"/></g></g></svg>