<svg xmlns="http://www.w3.org/2000/svg" viewBox="0 0 32.8 35"><defs><style>.cls-1{fill:#dcc19d;}</style></defs><g id="Layer_2" data-name="Layer 2"><g id="Layer_1-2" data-name="Layer 1"><path class="cls-1" d="M25.35,13.87H3.05a1,1,0,0,1-.88-.52,1,1,0,0,1,.05-1L5.77,6.91,2.56,1.5A1,1,0,0,1,3.41,0H25.27A1,1,0,0,1,26,.26l6.53,6A1,1,0,0,1,32.8,7a1,1,0,0,1-.33.73L26,13.61A1,1,0,0,1,25.35,13.87Zm-20.47-2H25L30.34,7,24.89,2H5.15L7.79,6.43a1,1,0,0,1,0,1.05Z"/><path class="cls-1" d="M17.87,34.56h-4a1,1,0,0,1-1-1V12.88a1,1,0,0,1,1-1h4a1,1,0,0,1,1,1V33.57A1,1,0,0,1,17.87,34.56Zm-3-2h2V13.87h-2Z"/><path class="cls-1" d="M30.49,35H1a1,1,0,1,1,0-2h29.5a1,1,0,1,1,0,2Z"/></g></g></svg>