<svg xmlns="http://www.w3.org/2000/svg" viewBox="0 0 22.71 20"><defs><style>.cls-1{fill:#dcc19d;}</style></defs><g id="Layer_2" data-name="Layer 2"><g id="Layer_1-2" data-name="Layer 1"><polygon class="cls-1" points="8.41 14.67 8.23 19.41 10.68 16.42 8.41 14.67"/><line class="cls-1" x1="8.55" y1="19.09" x2="8.55" y2="19.09"/><path class="cls-1" d="M21.76.05C17.85,1.63,5.23,6.89.45,8.88a.73.73,0,0,0,.06,1.37L6,12,18.27,4.51a.08.08,0,0,1,.09.12L9,13.56l8.51,6.22a1.14,1.14,0,0,0,1.79-.71C20.06,14.88,22,4.41,22.7.82A.69.69,0,0,0,21.76.05Z"/></g></g></svg>