<svg xmlns="http://www.w3.org/2000/svg" viewBox="0 0 20 20"><defs><style>.cls-1{fill:#dcc19d;}</style></defs><g id="Layer_2" data-name="Layer 2"><g id="Layer_1-2" data-name="Layer 1"><path class="cls-1" d="M20,9.49A9.82,9.82,0,0,0,.37,9.31c0,.14,0,.29,0,.43a9.68,9.68,0,0,0,1.41,5L0,20l5.43-1.73a9.89,9.89,0,0,0,4.75,1.21A9.78,9.78,0,0,0,20,9.74C20,9.66,20,9.58,20,9.49Zm-9.81,8.44a8.27,8.27,0,0,1-4.54-1.35l-3.17,1,1-3a8.09,8.09,0,0,1-1.57-4.8A6.85,6.85,0,0,1,2,9a8.26,8.26,0,0,1,16.44.15c0,.21,0,.43,0,.64A8.23,8.23,0,0,1,10.18,17.93Z"/><path class="cls-1" d="M14.39,11.71c-.24-.12-1.42-.7-1.64-.78s-.38-.12-.54.12a11.55,11.55,0,0,1-.77.93c-.14.16-.28.18-.52.06A6.4,6.4,0,0,1,9,10.86,7,7,0,0,1,7.65,9.21c-.14-.24,0-.37.1-.49a5.22,5.22,0,0,0,.36-.42l.09-.11a2.52,2.52,0,0,0,.16-.29.44.44,0,0,0,0-.42c-.06-.11-.55-1.29-.75-1.77s-.4-.4-.54-.4l-.46,0a.88.88,0,0,0-.64.3,2.68,2.68,0,0,0-.84,2,3.19,3.19,0,0,0,.12.82,5.59,5.59,0,0,0,.86,1.65,9.82,9.82,0,0,0,4.11,3.61c2.45,1,2.45.64,2.89.6a2.42,2.42,0,0,0,1.62-1.14A2,2,0,0,0,14.86,12,1.6,1.6,0,0,0,14.39,11.71Z"/></g></g></svg>